<?xml version="1.0" standalone="no"?>
<!DOCTYPE svg PUBLIC "-//W3C//DTD SVG 1.1//EN" "http://www.w3.org/Graphics/SVG/1.1/DTD/svg11.dtd" >
<svg xmlns="http://www.w3.org/2000/svg">
<metadata>
Created by FontPrep 20130207 at Fri Dec  5 16:58:21 2014
 By Zendy Wongso
(c) 2001 Mark Simonson
</metadata>
<defs>
<font id="a737fdd2a58a60d63b292c4bb24ff6a6" horiz-adv-x='1024' >
  <font-face 
    font-family="CoquetteBold"
    font-weight="700"
    font-stretch="normal"
    units-per-em="2048"
    panose-1="2 0 8 3 0 0 0 0 0 0"
    ascent="1638"
    descent="-410"
    x-height="778"
    cap-height="1477"
    bbox="-41 -535 2253 1485"
    underline-thickness="40"
    underline-position="-252"
    unicode-range="U+0020-007E"
  />
<missing-glyph horiz-adv-x="1024" 
 />
    <glyph glyph-name=".notdef" horiz-adv-x="1024" 
 />
    <glyph glyph-name=".null" horiz-adv-x="0" 
 />
    <glyph glyph-name="nonmarkingreturn" horiz-adv-x="681" 
 />
    <glyph glyph-name="space" unicode=" " horiz-adv-x="542" 
 />
    <glyph glyph-name="exclam" unicode="!" horiz-adv-x="567" 
d="M284 303q68 0 114 -47t46 -114q0 -68 -47 -114t-113 -46t-114 47q-47 47 -47 113t47 114q47 47 114 47zM193 440q-14 198 -19 334l-35 680h289l-37 -688q-2 -50 -8 -160t-8 -166h-182z" />
    <glyph glyph-name="quotedbl" unicode="&#x22;" horiz-adv-x="952" 
d="M451 1294q0 -70 -21 -118q-47 -137 -217 -232l-80 94q27 14 76 52q31 29 61 65q-63 6 -106 52t-43 111t47 112t126 47t116 -58q41 -55 41 -125zM840 1294q0 -70 -21 -118q-47 -137 -217 -232l-80 94q27 14 76 52q31 29 61 65q-63 6 -106 52t-43 111t47 112t126 47
t116 -58q41 -55 41 -125z" />
    <glyph glyph-name="numbersign" unicode="#" horiz-adv-x="966" 
d="M578 778h-144l-47 -217h143zM967 942l-37 -164h-189l-47 -217h189l-37 -162h-189l-32 -151h-164l33 151h-142l-35 -151h-161l32 151h-188l37 162h186l49 217h-188l35 164h188l33 152h164l-33 -152h143l33 152h164l-33 -152h189z" />
    <glyph glyph-name="dollar" unicode="$" horiz-adv-x="622" 
d="M504 680q-52 53 -112 53t-60 -55q0 -25 31 -47q73 -52 145 -133q33 -40 33 -104t-36 -126q-36 -61 -102 -90v-178h-172v160q-76 11 -112 35v217q47 -53 109 -55q62 -1 63 59q0 23 -31 45t-70 54q-40 32 -74 75q-34 42 -34 110t40 129t109 89v176h172v-166q76 -13 101 -33
v-215z" />
    <glyph glyph-name="percent" unicode="%" horiz-adv-x="1517" 
d="M451 815q-55 0 -86 39q-35 39 -27 90q-47 -6 -77 -41t-30 -83t36 -84t86 -36t85 34t39 85q-20 -4 -26 -4zM1260 266q-56 0 -90 40t-25 89q-43 -6 -76 -39q-31 -37 -31 -85t36 -84q36 -35 86 -35t87 32q37 39 39 86q-10 0 -14 -4h-12zM647 824q0 -122 -85 -208t-207 -86
t-208 83t-86 205t86 214q86 86 206 85t208 -85q86 -86 86 -208zM1243 1001l-815 -1026l-152 121l816 1026zM954 66q-84 100 -84 208q0 109 84 209q102 86 211 85t207 -85q84 -100 84 -210t-84 -207q-102 -86 -210 -85q-109 1 -208 85z" />
    <glyph glyph-name="ampersand" unicode="&#x26;" horiz-adv-x="1388" 
d="M687 -18q-474 0 -474 311q0 86 53 162q65 85 140 88q-143 29 -246 149q-99 133 -99 266q1 134 55 233q108 197 339 257q115 31 206 31q177 0 287 -52q63 -29 115 -67q53 -43 97 -115t44 -164q0 -242 -221 -352q-61 -29 -145 -39l-78 230q76 7 116 33t66 55q18 30 18 74
q1 84 -102 130q-85 29 -162 29q-153 0 -262 -65q-115 -79 -115 -213q0 -66 37 -123q51 -92 150 -144q100 -45 205 -45h18q14 0 21 2v-223q-106 0 -161 -12q-120 -27 -120 -113q-1 -31 19 -49t61 -36t104 -17q63 0 105 10q101 13 159 91q49 66 11 306h461v-231h-252
q0 -303 -281 -377q-80 -20 -169 -20z" />
    <glyph glyph-name="quotesingle" unicode="'" 
d="M451 1294q0 -70 -21 -118q-47 -137 -217 -232l-80 94q27 14 76 52q31 29 61 65q-63 6 -106 52t-43 111t47 112t126 47t116 -58q41 -55 41 -125z" />
    <glyph glyph-name="parenleft" unicode="(" horiz-adv-x="624" 
d="M82 504q0 268 91 521t265 460l142 -119q-314 -375 -314 -862q0 -242 83 -465t235 -401l-142 -121q-360 432 -360 987z" />
    <glyph glyph-name="parenright" unicode=")" horiz-adv-x="583" 
d="M543 500q0 -272 -91 -524t-266 -459l-141 118q313 374 311 863q0 242 -82 460q-80 225 -233 406l141 121q172 -205 266 -459t95 -526z" />
    <glyph glyph-name="asterisk" unicode="*" horiz-adv-x="780" 
d="M739 635l-82 -141l-202 135l16 -242h-164l17 242l-201 -135l-82 141l217 106l-217 109l82 141l201 -135l-17 242h164l-16 -242l202 135l82 -141l-219 -109z" />
    <glyph glyph-name="plus" unicode="+" horiz-adv-x="942" 
d="M881 371h-291v-291h-238v291h-291v237h291v291h238v-291h291v-237z" />
    <glyph glyph-name="comma" unicode="," 
d="M451 120q0 -222 -238 -349l-80 94q80 43 137 117q-63 6 -106 51t-43 111t47 112q47 47 126 47t116 -57q41 -56 41 -126z" />
    <glyph glyph-name="hyphen" unicode="-" horiz-adv-x="614" 
d="M553 371h-492v237h492v-237z" />
    <glyph glyph-name="period" unicode="." 
d="M282 303q68 0 114 -47t46 -114q0 -68 -47 -114t-113 -46t-114 47q-47 47 -47 113t47 114q47 47 114 47z" />
    <glyph glyph-name="slash" unicode="/" horiz-adv-x="892" 
d="M934 1346l-803 -1792l-172 79l803 1792z" />
    <glyph glyph-name="zero" unicode="0" horiz-adv-x="1007" 
d="M692 545q0 201 -94 309q-37 39 -96 39t-92 -39q-41 -43 -58 -92q-23 -49 -28 -115q-17 -108 0 -205q6 -66 28 -114q16 -49 58 -92q33 -39 92 -39q99 0 153 131q37 93 37 217zM926 545q0 -95 -22 -195t-76 -185t-132 -132q-78 -53 -192 -53t-193 53q-78 47 -131 132
t-76 185q-44 193 2 391q20 97 74 183t131 133q78 53 193 53t192 -53q78 -47 131 -132t76 -185t23 -195z" />
    <glyph glyph-name="one" unicode="1" horiz-adv-x="731" 
d="M588 0h-232v702q-53 -80 -139 -120t-176 -41v237q127 0 221 92q96 96 94 224h232v-1094z" />
    <glyph glyph-name="two" unicode="2" horiz-adv-x="980" 
d="M486 32q-28 8 -82 7q-54 0 -82 -10q-41 -15 -103 -54l-108 207q45 23 202 137q145 115 217 201q45 49 72 105q29 49 29 115t-41 114q-41 49 -116 49t-118 -44t-43 -98q-1 -54 15 -80t57 -48l-143 -164q-160 103 -160 281q0 80 33 143q29 63 82 117q61 55 122 75
q66 29 148 29q182 0 291 -98q104 -98 104 -285q0 -132 -117 -285q-93 -112 -233 -210q6 2 42 2t79 -20t95 -21q52 0 91 9t80 42v-223q-70 -45 -186 -48q-45 0 -76 11q-25 4 -74 20t-77 24z" />
    <glyph glyph-name="three" unicode="3" horiz-adv-x="962" 
d="M881 344q0 -72 -31 -140t-84 -118q-53 -49 -127 -76q-73 -26 -177 -26t-203 53t-177 153l162 166q41 -63 98 -114q57 -45 133 -45t127 45q49 46 49 114t-39 110t-104 42t-107 -49l-139 186l256 227h-405v222h686v-222l-226 -196q129 0 218 -98q90 -107 90 -234z" />
    <glyph glyph-name="four" unicode="4" horiz-adv-x="962" 
d="M881 172h-133v-172h-232v172h-434v309q74 47 127 117q47 57 98 152q39 92 62 172q20 98 20 172h244q0 -88 -29 -190q-61 -214 -198 -388q-76 -84 -146 -127h256v156l232 117v-273h133v-217z" />
    <glyph glyph-name="five" unicode="5" horiz-adv-x="956" 
d="M240 356q103 -161 236 -161q77 0 120 46q43 45 43 113t-46 106t-110 38q-119 0 -174 -86l-196 106l84 576h602v-215h-439l-22 -203q52 28 145 30q178 3 281 -96q110 -93 110 -261t-112 -263q-104 -102 -298 -102q-222 1 -382 206z" />
    <glyph glyph-name="six" unicode="6" horiz-adv-x="966" 
d="M653 352q0 68 -47 119q-51 47 -119 47t-118 -47q-47 -51 -47 -119t47 -119q51 -47 119 -47t118 47q47 51 47 119zM885 348q0 -151 -117 -264q-55 -53 -125 -76q-63 -28 -152 -28t-172 32q-76 37 -131 94q-55 70 -77 144q-29 78 -29 186q0 208 133 400q63 88 151 164
t169 126l139 -176q-115 -66 -199 -138t-129 -183q25 33 75 61q51 28 113 27q62 0 130 -28t118 -81t74 -114q29 -64 29 -146z" />
    <glyph glyph-name="seven" unicode="7" horiz-adv-x="864" 
d="M449 193q0 -91 20 -193h-242q-12 78 -12 154q0 201 84 391t238 323q-61 -18 -106 -18t-65 5t-39 10t-31 8l-44 11q-31 8 -62 9q-104 0 -149 -35v217q72 39 156 39t155 -33q14 -4 59 -17t83 -13l57 2q43 10 47 12l41 20q4 3 21 13t28 16l135 -244q-374 -276 -374 -677z
" />
    <glyph glyph-name="eight" unicode="8" horiz-adv-x="987" 
d="M672 348q0 39 -17 64q-12 29 -41 47q-49 43 -123 43q-73 0 -118 -43q-29 -18 -41 -47q-16 -25 -16 -64t16 -63q12 -27 41 -49q45 -41 121 -41q77 0 120 41q29 23 41 49q17 24 17 63zM494 698q46 0 84 32t38 82t-38 81q-35 33 -84 33t-84 -33q-39 -31 -39 -81t38 -82
t85 -32zM905 341q0 -175 -123 -273q-49 -41 -131 -68q-81 -20 -159 -20q-176 0 -287 90q-123 96 -123 268q0 92 52 163t132 103q-49 27 -88 88q-37 61 -37 126q0 128 113 214q97 80 235 80t244 -80q111 -89 111 -219q0 -63 -37 -121q-33 -57 -90 -86q96 -35 139 -102
q49 -68 49 -163z" />
    <glyph glyph-name="nine" unicode="9" horiz-adv-x="954" 
d="M641 739q0 70 -48 118t-118 48t-118 -48t-48 -118q0 -69 48 -117t118 -48t118 47q48 48 48 118zM872 656q0 -104 -32 -210q-106 -293 -412 -481l-137 176q115 65 199 139t126 183q-26 -35 -74 -62q-101 -57 -243 2q-131 55 -189 197q-28 68 -28 148q0 143 115 260
q53 47 122 77q76 27 162 27q180 0 289 -129q102 -114 102 -327z" />
    <glyph glyph-name="colon" unicode=":" 
d="M282 303q68 0 114 -47t46 -114q0 -68 -47 -114t-113 -46t-114 47q-47 47 -47 113t47 114q47 47 114 47zM282 795q68 0 114 -47q46 -48 46 -112t-47 -116q-47 -47 -113 -47t-114 49q-47 49 -47 114t47 112t114 47z" />
    <glyph glyph-name="semicolon" unicode=";" 
d="M451 120q0 -222 -238 -349l-80 94q80 43 137 117q-63 6 -106 51t-43 111t47 112q47 47 126 47t116 -57q41 -56 41 -126zM282 795q68 0 114 -47q46 -48 46 -112t-47 -116q-47 -47 -113 -47t-114 49q-47 49 -47 114t47 112t114 47z" />
    <glyph glyph-name="less" unicode="&#x3c;" horiz-adv-x="829" 
d="M788 104l-167 -167l-580 579l580 580l167 -166l-413 -414z" />
    <glyph glyph-name="equal" unicode="=" horiz-adv-x="983" 
d="M901 135h-819v236h819v-236zM901 608h-819v236h819v-236z" />
    <glyph glyph-name="greater" unicode="&#x3e;" horiz-adv-x="829" 
d="M788 516l-579 -579l-168 167l412 412l-412 414l168 166z" />
    <glyph glyph-name="question" unicode="?" horiz-adv-x="860" 
d="M456 303q68 0 114 -47t46 -114q0 -68 -47 -114t-113 -46t-114 47q-47 47 -47 113t47 114q47 47 114 47zM41 1122q0 78 33 148q41 74 90 110q114 97 280 97q80 0 146 -23q62 -16 116 -61t85 -109q28 -67 28 -153t-54 -149q-53 -64 -99 -96t-121 -95q-49 -45 -49 -107
q0 -33 16 -64t57 -30l-112 -172q-28 0 -74 24q-55 34 -89 92t-34 128q0 116 84 223q40 45 115 100q74 54 100 83q27 30 27 76t-43 85q-45 33 -105 33t-114 -37q-50 -41 -50 -101t39 -94l-163 -145q-109 100 -109 237z" />
    <glyph glyph-name="at" unicode="@" horiz-adv-x="1296" 
d="M801 602q-39 119 -165 119q-58 0 -104 -53q-45 -47 -45 -117t45 -121q46 -51 104 -51q105 0 155 90q2 3 6 15t4 14v104zM651 63q194 0 330 136l57 -58q-89 -105 -290 -149q-74 -8 -107 -8q-115 0 -221 45q-212 102 -295 307q-43 104 -43 222t47 220t119 174t178 118
t221 46t221 -45t180 -120q166 -166 166 -394q0 -59 -30 -154q-41 -92 -95 -133t-108 -42q-55 -1 -98 32t-64 80q-67 -117 -215 -117q-139 0 -219 96q-43 45 -61 105q-23 53 -23 125t23 125q18 59 61 104q33 41 90 70t129 29q124 0 197 -93v76h186v-407q0 -29 17 -47
q12 -23 43 -23q88 0 88 174q0 104 -41 188q-37 88 -107 152q-61 61 -155 100t-191 39q-98 0 -182 -41q-170 -73 -258 -258q-39 -90 -39 -187t39 -181q35 -86 102 -158q66 -66 156 -109q94 -39 192 -39z" />
    <glyph glyph-name="A" unicode="A" horiz-adv-x="1484" 
d="M1032 287h-317v-287h-256v287h-183v231h183v156q0 290 221 448l158 -196q-125 -70 -123 -252v-156h317v356q0 161 -108 265q-49 47 -121 78q-131 48 -268 10t-216 -148q-35 -53 -35 -119t15 -110q14 -43 55 -88l-186 -158q-104 104 -123 250q-4 61 -4 113t16 102
q28 128 144 242q120 107 288 151q219 47 416 -22q113 -39 201 -119q182 -165 182 -434v-596q0 -78 78 -78q37 0 64 16q31 12 55 39v-221q-13 -17 -29 -27t-55 -24l-55 -12l-48 -2q-80 0 -127 22q-51 18 -81 62q-29 35 -46 94q-12 57 -12 127z" />
    <glyph glyph-name="B" unicode="B" horiz-adv-x="1415" 
d="M1059 309q0 90 -59 128t-144 38q-29 0 -41 -2l-43 -6v-186l10 -19v-4q41 -66 138 -68q59 0 96 35q43 31 43 84zM285 848q0 -106 69 -174l-186 -160q-74 78 -102 162q-25 62 -25 199q0 136 58 253t151 189q94 80 220 120t230 40t209 -15q208 -40 328 -143q74 -55 126 -151
t52 -192t-26 -169q-33 -68 -75 -116q-92 -106 -255 -130q83 -11 168 -98q80 -100 80 -184q0 -53 -21 -115q-28 -61 -62 -98t-85 -62q-57 -23 -115 -22q-200 0 -276 141q-56 -143 -242 -141l-47 2q-114 22 -140 63v221q51 -55 119 -55q78 0 78 78v766h256v-395q267 0 350 137
q35 53 35 139t-39 139q-39 61 -100 94q-113 70 -281 70q-283 0 -413 -213q-39 -74 -39 -180z" />
    <glyph glyph-name="C" unicode="C" horiz-adv-x="1404" 
d="M82 698q0 166 53 310q55 137 152 243q98 105 234 165t291 60t285 -58q130 -60 201 -204q45 -84 45 -179q0 -181 -135 -314q-136 -123 -317 -123q-75 0 -137 25q-23 6 -70 24q-41 20 -57 35l102 219q67 -63 154 -63q86 0 141 55q63 63 63 150t-85 141q-85 53 -186 53
t-198 -45q-88 -51 -151 -123q-66 -86 -94 -176q-35 -90 -35 -202t38 -203q72 -172 263 -238q94 -31 177 -31q208 0 368 117q47 31 78 78v-299q-176 -135 -416 -133q-164 0 -306 48q-289 98 -401 369q-57 133 -57 299z" />
    <glyph glyph-name="D" unicode="D" horiz-adv-x="1718" 
d="M41 809q0 319 217 494q217 174 553 174t582 -226q243 -239 243 -581q0 -145 -34 -264q-29 -118 -102 -216q-155 -208 -445 -208q-210 0 -305 145q-53 -147 -244 -145l-47 2q-74 15 -101 30q-27 14 -39 33v221q51 -55 119 -55q78 0 78 78v766h256v-684q33 -86 112 -130
t173 -44t160 43q163 106 163 428q0 125 -45 227q-84 210 -303 301q-104 43 -218 43q-244 0 -374 -102q-155 -107 -155 -327q0 -110 69 -196l-186 -159q-127 139 -127 352z" />
    <glyph glyph-name="E" unicode="E" horiz-adv-x="1183" 
d="M1184 1077q0 -236 -221 -348q-61 -29 -146 -39l-78 230q78 7 117 33t66 55q18 30 18 74q0 84 -100 130q-78 29 -156 29q-163 0 -266 -65q-49 -33 -84 -86t-35 -122t47 -149t141 -124t203 -44h19q14 0 20 2v-223q-47 0 -78 -4q-107 0 -172 -53q-31 -25 -31 -63t23 -60
q63 -47 166 -47q102 -1 171 21t134 73v-246q-66 -37 -160 -59q-78 -10 -155 -10q-78 0 -164 14q-153 38 -234 147q-37 61 -36 147t53 161q55 81 139 92q-141 29 -246 149q-98 131 -98 268q0 256 195 392q175 125 434 125q134 0 270 -52q66 -31 117 -73q127 -118 127 -275z
" />
    <glyph glyph-name="F" unicode="F" horiz-adv-x="1447" 
d="M1448 1223q-129 0 -207 -72q-80 -63 -121 -186q-22 -68 -22 -136v-163h229v-232h-229v-121q0 -152 -88 -239q-88 -92 -238 -92q-70 0 -146 19t-98 46v244q32 -35 98 -58q66 -22 111 -22t75 25t30 77v121h-228v232h228v163q0 53 14 121q20 66 47 115q75 116 182 154h-579
q-93 0 -148 -35q-63 -51 -63 -132t78 -126q70 -34 155 -29l-77 -233q-184 12 -295 106q-53 47 -86 119q-29 76 -29 171q0 186 144 291t339 103h924v-231z" />
    <glyph glyph-name="G" unicode="G" horiz-adv-x="1396" 
d="M291 1245q100 107 235 169t270 62t224 -26q90 -23 172 -78q164 -121 164 -328q0 -82 -33 -149q-31 -72 -84 -121q-51 -55 -125 -82q-98 -45 -205 -24q-98 10 -172 65l94 211q54 -41 132 -41q25 0 57 12t49 31q51 40 51 96q0 58 -30 96t-70 57q-41 19 -98 34q-74 8 -97 8
q-102 0 -198 -45q-98 -55 -152 -123q-63 -70 -100 -170q-37 -101 -37 -199q0 -340 227 -442q76 -39 187 -39q167 0 243 70v248h256v-721q0 -135 -59 -215t-168 -136l-137 209q110 15 108 142v231q-98 -65 -254 -65q-298 0 -487 206q-172 197 -172 512t209 545z" />
    <glyph glyph-name="H" unicode="H" horiz-adv-x="1824" 
d="M1370 477h-258q-72 -250 -250 -373t-432 -122v233q147 0 250 64q109 59 164 198h-142v232h191q4 16 4 45v43q0 192 -74 305q-33 57 -102 102q-67 37 -145 37t-121 -16q-95 -25 -140 -121q-20 -44 -20 -96t29 -101q25 -51 63 -73l-168 -185q-76 43 -129 156
q-49 109 -49 196q0 202 158 347q74 66 166 94q86 35 215 35t239 -56q221 -102 297 -360q37 -127 37 -264v-45q0 -29 -2 -43h219v745h256v-1163q0 -78 78 -78q39 0 65 16q31 12 56 39v-221q-30 -44 -142 -63l-45 -2q-119 0 -172 47q-59 43 -77 116q-25 67 -22 143t3 189z" />
    <glyph glyph-name="I" unicode="I" horiz-adv-x="1112" 
d="M713 348v664q0 137 -119 209q-37 18 -82 18q-96 0 -154 -59q-59 -55 -59 -154q1 -47 27 -88q42 -65 98 -94l-191 -166q-69 37 -135 153q-29 47 -41 99q-16 48 -16 122t39 161t98 139q58 57 146 91t188 34q203 0 332 -131q125 -134 125 -334v-664q0 -84 -26 -150
q-51 -132 -189 -190q-106 -47 -254 -12q-37 12 -59 22t-33 29v256q78 -92 174 -92q63 0 97 40t34 97z" />
    <glyph glyph-name="J" unicode="J" horiz-adv-x="1112" 
d="M713 -106v1118q0 137 -119 209q-37 18 -82 18q-96 0 -154 -59q-59 -55 -59 -154q1 -47 27 -88q42 -65 98 -94l-191 -166q-69 37 -135 153q-29 47 -41 99q-16 48 -16 122t39 161t98 139q58 57 146 91t188 34q203 0 332 -131q125 -134 125 -334v-1118q0 -166 -101 -267
q-95 -104 -262 -102q-54 0 -117 17t-81 48v258q78 -92 174 -92q63 0 97 40t34 98z" />
    <glyph glyph-name="K" unicode="K" horiz-adv-x="1875" 
d="M1688 -18q-57 0 -107 22q-53 29 -82 66q-56 56 -102 165q-70 167 -164 220q-33 23 -78 22h-43q-72 -250 -250 -373t-432 -122v233q135 0 221 47q175 86 223 312q22 106 23 202q0 213 -74 326q-33 57 -102 102q-67 37 -145 37t-121 -16q-95 -25 -140 -121q-20 -44 -20 -96
t29 -101q25 -51 63 -73l-168 -185q-76 43 -129 156q-49 109 -49 196q0 202 158 347q74 66 166 94q86 35 215 35t239 -56q221 -102 297 -360q37 -127 37 -264v-45q0 -29 -2 -43h86q63 0 100 28q69 43 97 164q8 66 8 100v453h256v-453q0 -86 -23 -153q-16 -66 -62 -127
t-110 -94q-63 -37 -149 -41q117 -4 188 -107q34 -41 56 -91t44 -87t55 -65q32 -28 83 -27q51 0 96 31v-215q-41 -33 -86 -38t-102 -5z" />
    <glyph glyph-name="L" unicode="L" horiz-adv-x="1304" 
d="M522 422q0 -114 -98 -199h387q119 1 180 21q97 33 178 100l136 -172q-43 -49 -105 -94q-107 -60 -233 -74q-90 -4 -140 -4h-786v227q103 1 163 53t60 154v578q0 201 131 333t340 132t334 -117q133 -115 133 -332q0 -33 -14 -98q-44 -117 -93 -174q-49 -58 -85 -78
l-185 158q121 62 121 192q0 90 -61 152q-63 57 -150 57t-153 -70q-58 -79 -60 -155v-590z" />
    <glyph glyph-name="M" unicode="M" horiz-adv-x="2244" 
d="M1790 270v815q0 156 -135 156q-68 0 -110 -46q-43 -46 -61 -101t-18 -72v-1022h-256v1085q0 156 -135 156q-39 0 -80 -20q-41 -29 -61 -58q-29 -33 -41 -73q-16 -33 -16 -78v-1012h-256v1012q1 89 -27 136q-50 87 -132 87q-81 0 -128 -43q-47 -44 -47 -106
q-1 -62 31 -113t79 -74l-176 -147q-86 49 -133 140t-47 185q0 187 113 293t299 107q253 0 360 -197q92 197 324 197q191 0 278 -162q96 162 303 162q153 0 248 -113q82 -114 82 -268l-2 -805q0 -37 20 -57t74 -21q54 0 105 55v-221q-10 -16 -33 -31q-38 -18 -101 -32l-45 -2
q-140 0 -208 76t-68 212z" />
    <glyph glyph-name="N" unicode="N" horiz-adv-x="1787" 
d="M805 1296q123 181 377 181q195 0 307 -140q104 -129 102 -323v-723q0 -78 78 -78q35 0 66 16q29 10 53 39v-221q-8 -14 -31 -31q-38 -18 -100 -32l-45 -2q-141 0 -209 76t-68 212v744q0 100 -49 166q-49 61 -156 61q-53 0 -94 -20q-51 -18 -82 -54q-77 -64 -77 -174v-993
h-256v1012q1 89 -27 136q-50 87 -132 87q-81 0 -128 -43q-47 -44 -47 -106q-1 -62 31 -113t79 -74l-176 -147q-86 49 -133 140t-47 185q0 187 113 293t299 107q239 0 352 -181z" />
    <glyph glyph-name="O" unicode="O" horiz-adv-x="1736" 
d="M647 1107q0 151 118 260q118 110 271 110q152 0 262 -60q226 -107 315 -381q42 -128 42 -274t-64 -293q-45 -111 -118 -201q-157 -194 -371 -252q-104 -34 -234 -34q-246 1 -441 135q-195 135 -282 350q-63 147 -63 293t42 258q42 111 85 174q41 63 102 129
q72 68 131 100q68 43 150 56v-256q-129 -70 -191 -189q-63 -115 -63 -247q0 -253 149 -404q68 -74 169 -116t217 -42q210 0 376 166q70 82 111 176q39 107 39 199q0 186 -84 328q-41 68 -111 114q-63 45 -157 45q-33 0 -66 -13t-49 -34q-49 -44 -49 -109q0 -64 41 -116
q41 -47 112 -47t131 35l82 -201q-93 -64 -239 -66q-78 0 -150 33q-72 41 -115 92q-45 59 -73 129q-25 74 -25 153z" />
    <glyph glyph-name="P" unicode="P" horiz-adv-x="1542" 
d="M980 377q-138 0 -208 33v-140q0 -290 -266 -288l-47 2q-114 22 -140 63v221q51 -55 119 -55q78 0 78 78v766h256v-451q58 -20 126 -20q133 0 216 76q92 79 91 194q-1 114 -39 182q-113 203 -431 203q-177 0 -309 -94q-63 -51 -102 -120t-39 -177t69 -176l-186 -160
q-74 78 -102 162q-25 62 -25 199q0 136 58 252q115 230 368 309q129 41 262 41t266 -36q275 -75 402 -296q63 -112 63 -267t-84 -272q-100 -146 -307 -217q-47 -12 -89 -12z" />
    <glyph glyph-name="Q" unicode="Q" horiz-adv-x="1419" 
d="M293 0v240q133 0 273 44t251 122t186 194t75 270q0 152 -95 258q-107 107 -257 107t-271 -80q-119 -97 -119 -236t78 -217q74 -82 211 -71l-93 -230q-94 0 -184 45q-165 99 -233 283q-33 89 -33 205t50 218t142 179q185 146 455 146t439 -170t169 -443q1 -270 -215 -484
q-100 -99 -225 -159q-117 -61 -258 -78q212 -53 324 -53q16 0 58 6q137 20 187 60v-258q-113 -45 -254 -45t-303 53q-61 22 -159 58t-199 36z" />
    <glyph glyph-name="R" unicode="R" horiz-adv-x="1492" 
d="M1288 -18q-72 0 -126 34t-83 77q-29 45 -49 99t-44 110t-59 92q-36 36 -98 36h-57v-160q0 -290 -266 -288l-47 2q-114 22 -140 63v201q25 -29 54 -39q31 -16 65 -16q78 0 78 77v787h256v-414q6 -2 19 -2h18q137 0 244 70q115 73 115 218q-1 145 -144 238q-61 37 -139 58
q-86 16 -159 16t-151 -22q-163 -46 -251 -191q-39 -74 -39 -178t69 -176l-186 -160q-74 78 -102 162q-25 62 -25 199q0 136 58 253t151 189q94 80 220 120t234 40q222 0 381 -68q74 -31 154 -94q72 -61 124 -157t52 -191q0 -169 -117 -295q-50 -57 -120 -95t-142 -42
q80 -19 135 -93q10 -12 50 -69q42 -99 78 -133q35 -34 89 -34t105 36v-217q-39 -33 -86 -38t-119 -5z" />
    <glyph glyph-name="S" unicode="S" horiz-adv-x="968" 
d="M434 219q59 0 101 35q41 35 41 97t-39 114q-39 45 -101 96q-70 51 -138 97t-118 96q-63 59 -98 127q-41 70 -41 173q0 193 143 314q66 51 154 82q92 27 178 27q174 0 311 -101q142 -114 142 -282q0 -94 -51 -172q-55 -78 -142 -115l-166 154q101 44 101 126t-60 121
q-57 41 -117 41q-111 0 -169 -53q-70 -56 -70 -147t137 -197q45 -37 126 -94t130 -111q137 -132 137 -303t-112 -266q-107 -98 -279 -96q-121 0 -209 59v283q105 -105 209 -105z" />
    <glyph glyph-name="T" unicode="T" horiz-adv-x="1447" 
d="M1448 1223q-125 0 -205 -69t-119 -181q-27 -68 -26 -144v-481q0 -146 -86 -254q-40 -49 -102 -81q-62 -31 -135 -31t-149 19t-98 46v244q31 -37 80 -49q114 -39 195 12q39 29 39 94v481q0 53 14 121q20 66 47 115q75 116 182 154h-579q-93 0 -148 -35q-63 -51 -63 -132
t78 -126q70 -34 155 -29l-77 -233q-184 12 -295 106q-53 47 -86 119q-29 76 -29 171q0 186 144 291t339 103h924v-231z" />
    <glyph glyph-name="U" unicode="U" horiz-adv-x="1796" 
d="M629 1012q0 94 -43 151q-14 27 -52 51t-92 23q-55 0 -99 -46q-44 -47 -44 -105t30 -105t72 -68l-180 -161q-86 49 -133 140t-47 185q0 187 113 293t311 106t309 -133q111 -134 111 -331v-570q0 -100 47 -168t143 -68t168 62q33 27 55 66q41 61 41 102q4 10 4 25v993h256
v-1163q0 -78 78 -78q35 0 66 16q29 10 53 39v-221q-8 -18 -36 -33t-62 -23q-35 -7 -39 -7l-49 -2q-82 0 -144 30t-98 111q-68 -86 -152 -114q-84 -27 -184 -27q-189 1 -303 137q-102 137 -100 323v570z" />
    <glyph glyph-name="V" unicode="V" horiz-adv-x="1798" 
d="M1679 1245q-78 0 -77 -78v-710q0 -211 -145 -345q-145 -135 -347 -135t-346 138q-63 68 -100 151q-35 92 -35 191v555q0 94 -43 151q-14 27 -52 51t-92 23q-55 0 -99 -46q-44 -47 -44 -105t30 -105t72 -68l-180 -161q-86 49 -133 140t-47 185q0 187 113 293t311 106
t309 -133q111 -134 111 -331v-555q0 -109 57 -181t170 -71q113 0 174 71q59 72 60 181v731q0 289 266 289q88 0 151 -35q23 -12 35 -31v-221q-51 55 -119 55z" />
    <glyph glyph-name="W" unicode="W" horiz-adv-x="2252" 
d="M2056 1167v-766q0 -188 -117 -305q-111 -116 -306 -114q-95 0 -172 48t-115 136q-45 -84 -125 -134q-81 -50 -175 -50q-190 0 -305 116q-57 63 -82 135q-31 74 -30 168v611q0 94 -43 153q-14 27 -52 51t-95 23q-58 0 -101 -43q-43 -42 -43 -102t32 -109t74 -72l-180 -161
q-86 49 -133 140t-47 185q0 187 113 293t311 106t309 -133q111 -134 111 -331v-611q0 -69 42 -123t112 -54t128 52q47 55 47 125v1053h256v-1053q0 -62 46 -122q23 -23 53 -41q71 -27 131 0q70 43 88 98q12 31 12 65v787q0 289 266 289q89 0 152 -35q23 -12 35 -31v-221
q-51 55 -119 55q-78 0 -78 -78z" />
    <glyph glyph-name="X" unicode="X" horiz-adv-x="1761" 
d="M1761 -18q-224 0 -401 120q-149 113 -260 332q-104 -216 -246 -332q-171 -122 -389 -120v233q209 0 330 170q59 72 115 202t63 144q-46 107 -71 177q-26 71 -78 150q-120 183 -277 183q-106 0 -179 -56t-73 -169q0 -46 29 -100t63 -82l-168 -185q-82 55 -133 158
q-45 99 -45 203q0 203 154 335t366 132q190 0 340 -129q108 -100 203 -308q156 326 416 406q98 31 215 31v-232q-106 0 -191 -45q-78 -47 -139 -119q-93 -125 -176 -342q91 -229 188 -354q138 -168 344 -168v-235z" />
    <glyph glyph-name="Y" unicode="Y" horiz-adv-x="1736" 
d="M621 1012q0 47 -11 78q-14 85 -82 127q-29 20 -85 20t-100 -46q-44 -47 -44 -105t30 -105t72 -68l-180 -161q-86 49 -133 140t-47 185q0 187 113 293t311 106t305 -133q107 -123 107 -331v-555q0 -113 62 -177t174 -63q112 -1 168 63t56 177v997h256v-1638
q0 -131 -57 -213q-66 -82 -170 -138l-139 209q112 18 110 142v282q-51 -74 -119 -96t-159 -20q-173 1 -314 141q-126 149 -124 334v555z" />
    <glyph glyph-name="Z" unicode="Z" horiz-adv-x="1527" 
d="M508 1219q-93 0 -148 -35q-33 -25 -45 -54q-18 -30 -18 -76q0 -86 80 -128q56 -35 153 -29l-77 -233q-187 12 -297 106q-115 106 -115 291t144 290t339 103h858l99 -199l-801 -981h37q75 0 113 -10t80 -21t88 -23t124 -11q76 0 148 20q68 27 123 80l135 -170
q-160 -161 -380 -159q-127 1 -283 45q-156 45 -227 46q-119 1 -235 -89l-167 153l913 1084h-641z" />
    <glyph glyph-name="bracketleft" unicode="[" horiz-adv-x="606" 
d="M565 -440h-422v1894h422v-174h-233v-1544h233v-176z" />
    <glyph glyph-name="backslash" unicode="\" horiz-adv-x="892" 
d="M934 -367l-172 -79l-803 1792l172 79z" />
    <glyph glyph-name="bracketright" unicode="]" horiz-adv-x="606" 
d="M463 -440h-422v176h233v1544h-233v174h422v-1894z" />
    <glyph glyph-name="asciicircum" unicode="^" horiz-adv-x="1241" 
d="M1200 549l-168 -166l-411 412l-412 -412l-168 166l580 579z" />
    <glyph glyph-name="underscore" unicode="_" horiz-adv-x="819" 
d="M819 -317h-819v143h819v-143z" />
    <glyph glyph-name="grave" unicode="`" horiz-adv-x="540" 
d="M500 997l-129 -129l-330 328l131 131z" />
    <glyph glyph-name="a" unicode="a" horiz-adv-x="1101" 
d="M526 602q-52 0 -90 -17q-37 -17 -61 -43t-47 -71q-25 -85 0 -164q41 -79 106 -114q107 -44 193 20q50 37 73 96v160q-22 59 -72 96t-102 37zM723 121q-91 -141 -261 -140q-171 1 -276 119q-104 118 -104 287q0 170 105 289t263 119q159 0 250 -107v90h234v-516
q0 -35 24 -53q20 -21 62 -21t82 33v-188q-69 -51 -157 -51q-89 0 -142 38q-55 45 -80 101z" />
    <glyph glyph-name="b" unicode="b" horiz-adv-x="1034" 
d="M424 614q0 84 63 131q19 23 59 39q108 44 224 -21t162 -214q20 -68 20 -150q0 -160 -125 -293q-134 -128 -299 -127q-164 1 -284 121t-121 289v1065h233v-1063q0 -69 58 -133q23 -18 61 -41q39 -14 72 -14q88 0 140 58t52 145q0 48 -18 86q-54 -54 -107 -55
q-123 -3 -176 108q-14 31 -14 69z" />
    <glyph glyph-name="c" unicode="c" horiz-adv-x="839" 
d="M82 390q0 167 108 286q49 53 121 87q71 34 137 34q205 0 285 -117q25 -44 25 -110t-43 -112q-43 -44 -108 -44t-103 41q-18 14 -37 43q-12 25 -12 51v18q0 4 4 17q-86 0 -125 -54t-39 -118t17 -101t48 -63q61 -53 158 -53q144 0 221 67v-235q-96 -45 -203 -45
q-213 0 -327 110q-51 43 -94 129q-33 86 -33 169z" />
    <glyph glyph-name="d" unicode="d" horiz-adv-x="1105" 
d="M705 322v135q0 3 -20 44t-66 71t-96 30t-87 -17t-61 -43t-47 -71q-25 -85 0 -164q41 -79 106 -114q99 -41 184 12q47 31 80 98q7 17 7 19zM727 125q-95 -145 -265 -144q-171 1 -276 119q-104 118 -104 287q0 170 105 289t268 119q164 0 250 -113v772h233v-1192
q0 -35 25 -53q20 -21 62 -21t81 33v-188q-69 -51 -156 -51q-88 0 -143 38q-57 45 -80 105z" />
    <glyph glyph-name="e" unicode="e" horiz-adv-x="876" 
d="M454 598q-74 0 -119 -60q-46 -60 -46 -143q0 -39 16 -84l250 260q-27 27 -101 27zM82 388q0 164 115 288q124 119 278 119q121 1 207 -45t154 -144l-410 -409q49 -18 106 -19q134 0 220 74v-225q-96 -45 -202 -45q-205 0 -335 110q-61 51 -97 130t-36 166z" />
    <glyph glyph-name="f" unicode="f" horiz-adv-x="669" 
d="M477 1122v-344h199v-219h-199v-706q0 -122 -80 -225t-198 -103l-88 194q49 0 94 39q39 45 39 95v706h-203v219h203v344q0 74 26 144q65 134 193 184q66 27 155 27t154 -56v-227q-67 55 -164 55q-49 0 -92 -37q-39 -39 -39 -90z" />
    <glyph glyph-name="g" unicode="g" horiz-adv-x="1081" 
d="M705 322v135q0 3 -20 44t-66 71t-96 30t-87 -17t-61 -43t-47 -71q-25 -85 0 -164q41 -79 106 -114q103 -42 184 14q48 31 80 96q7 17 7 19zM705 778h233v-925q0 -61 -19 -117q-41 -122 -145 -182q-53 -29 -115 -29l-88 194q53 0 93 40t41 94v241q-90 -114 -252 -113
t-267 119q-104 118 -104 287q0 170 105 289t268 119q164 0 250 -113v96z" />
    <glyph glyph-name="h" unicode="h" horiz-adv-x="1017" 
d="M616 487q0 45 -24 82q-27 33 -76 33t-86 -34t-43 -68q-6 -33 -10 -37v-463h-234v1454h234v-752q66 93 201 93q114 0 196 -84q74 -87 76 -199v-250q0 -72 88 -74q41 0 80 33v-188q-69 -51 -176 -51q-55 0 -92 22q-41 18 -72 56q-60 73 -62 171v256z" />
    <glyph glyph-name="i" unicode="i" horiz-adv-x="542" 
d="M143 778h232v-516q0 -72 90 -74q43 0 78 33v-188q-69 -51 -176 -51q-55 0 -93 22q-38 18 -70 55t-44 80q-16 41 -17 92v547zM420 1100q0 -66 -46 -114t-114 -48t-115 48t-47 114t47 114t115 48t113 -50q47 -46 47 -112z" />
    <glyph glyph-name="j" unicode="j" horiz-adv-x="520" 
d="M377 -147q0 -61 -21 -115q-38 -124 -143 -184q-53 -29 -113 -29l-90 194q51 0 94 39q41 45 41 95v925h232v-925zM422 1100q0 -66 -47 -114t-115 -48t-114 48t-46 114t47 112q45 50 114 50t114 -50q47 -46 47 -112z" />
    <glyph glyph-name="k" unicode="k" horiz-adv-x="1017" 
d="M377 0h-234v1454h234v-960q174 0 233 174q14 61 15 110h231q0 -70 -16 -127q-10 -53 -45 -114q-80 -113 -199 -136q61 -10 96 -45q41 -29 74 -71q47 -51 75 -75t78 -24t99 35v-188q-69 -51 -168 -51t-170 84q-35 39 -57 77q-47 61 -73 87q-73 73 -167 71l-6 -2v-299z" />
    <glyph glyph-name="l" unicode="l" horiz-adv-x="542" 
d="M143 1454h234v-1192q0 -35 24 -53q19 -21 63 -21t79 33v-188q-62 -51 -176 -51q-55 0 -93 22q-38 18 -70 55t-44 80q-16 41 -17 92v1223z" />
    <glyph glyph-name="m" unicode="m" horiz-adv-x="1490" 
d="M801 676q63 119 229 119q122 0 211 -78q37 -33 62 -90q20 -55 20 -115v-250q1 -72 91 -74q42 0 77 33v-188q-62 -51 -176 -51q-55 0 -92 22q-80 35 -117 135q-14 53 -14 92v256q0 47 -27 81t-75 34t-85 -35t-49 -90q-6 -14 -6 -20v-457h-234v487q0 45 -24 82
q-27 33 -76 33t-86 -34t-43 -68q-6 -33 -10 -37v-463h-234v778h234v-76q66 93 204 93q137 0 220 -119z" />
    <glyph glyph-name="n" unicode="n" horiz-adv-x="1017" 
d="M616 487q0 45 -24 82q-27 33 -76 33t-86 -35t-43 -67q-6 -33 -10 -41v-459h-234v778h234v-76q66 93 201 93q114 0 196 -84q74 -87 76 -199v-250q0 -72 88 -74q41 0 80 33v-188q-69 -51 -176 -51q-55 0 -92 22q-41 18 -72 56q-60 73 -62 171v256z" />
    <glyph glyph-name="o" unicode="o" horiz-adv-x="978" 
d="M612 377q-53 0 -101 47t-48 113q0 33 12 61q-86 -6 -135 -66q-53 -59 -53 -145q0 -47 16 -80q12 -39 43 -69q58 -57 143 -60q39 0 81 16q85 34 116 113q16 41 14 80v10q-35 -20 -88 -20zM897 387q0 -86 -32 -159q-67 -152 -218 -216q-72 -32 -158 -32q-87 0 -161 32
q-150 66 -213 217q-33 72 -33 158t32 160q63 146 218 217q72 33 158 33q168 0 288 -121q119 -119 119 -289z" />
    <glyph glyph-name="p" unicode="p" horiz-adv-x="1081" 
d="M768 389q0 35 -14 82q-42 81 -107 115q-39 16 -89 16t-98 -32t-77 -95q-6 -16 -6 -18v-135q-1 -8 19 -46t66 -69t96 -31q129 0 196 131q14 47 14 82zM377 682q90 113 251 113t266 -118t105 -289t-105 -289t-267 -118q-161 1 -250 113v-553h-234v1237h234v-96z" />
    <glyph glyph-name="q" unicode="q" horiz-adv-x="1083" 
d="M705 322v135q0 3 -20 44t-66 71t-96 30t-87 -17t-61 -43t-47 -71q-25 -85 0 -164q41 -79 106 -114q103 -42 184 14q48 31 80 96q7 17 7 19zM705 -229v323q-90 -114 -252 -113t-267 119q-104 118 -104 287q0 170 105 289t268 119q164 0 250 -113v96h233v-975q0 -35 25 -53
q20 -20 62 -20t81 32v-188q-71 -53 -178 -53q-47 0 -92 20q-93 60 -115 137q-16 41 -16 93z" />
    <glyph glyph-name="r" unicode="r" horiz-adv-x="739" 
d="M578 795q68 0 114 -47q46 -48 47 -112q0 -64 -47 -116q-48 -47 -118 -47t-119 59q-27 -14 -45 -43l-25 -55q-4 -4 -4 -16q-4 -8 -4 -17v-401h-234v778h234v-112q84 129 201 129z" />
    <glyph glyph-name="s" unicode="s" horiz-adv-x="577" 
d="M367 543q1 -27 23 -61t40 -68q27 -41 45 -86q21 -42 21 -95q0 -168 -138 -233q-43 -18 -124 -18t-152 38v218q54 -54 96 -55q86 -2 86 69q0 32 -24 70t-44 67q-60 94 -61 154q0 182 168 258l131 -160q-67 -32 -67 -98z" />
    <glyph glyph-name="t" unicode="t" horiz-adv-x="737" 
d="M244 559h-203v219h203v367h233v-367h199v-219h-199v-254q0 -51 23 -84q18 -35 57 -35q75 0 119 35v-188q-62 -51 -158 -51q-137 0 -206 78t-68 212v287z" />
    <glyph glyph-name="u" unicode="u" horiz-adv-x="1017" 
d="M143 778h234v-487q0 -45 24 -82q27 -33 76 -33t89 38t48 101l2 4v459h234v-516q0 -72 88 -74q41 0 80 33v-188q-69 -51 -156 -51q-158 0 -221 135q-29 -70 -92 -104q-63 -33 -127 -33t-115 24q-53 20 -86 62q-76 80 -78 200v512z" />
    <glyph glyph-name="v" unicode="v" horiz-adv-x="980" 
d="M858 303q0 -76 -27 -139q-92 -184 -329 -184q-154 0 -256 81q-49 43 -74 103q-29 55 -29 139v475h234v-446q0 -66 37 -111q36 -45 104 -45t105 45t36 111v98q-71 4 -119 57t-48 127t53 127t130 53t130 -52q53 -54 53 -130v-309z" />
    <glyph glyph-name="w" unicode="w" horiz-adv-x="1464" 
d="M1341 303q0 -76 -26 -139q-92 -184 -332 -184q-20 0 -70 8q-45 16 -67 26t-56 37q-33 27 -47 58q-33 -61 -101 -95q-126 -64 -282 -14q-66 23 -114 61q-49 43 -74 103q-29 55 -29 139v475h234v-456q0 -57 29 -103q30 -43 96 -43t96 43q29 45 29 103v456h231v-450
q0 -68 38 -110t106 -42t104 43q37 43 37 109v102q-72 4 -120 57t-48 127t53 127t130 53t130 -52q53 -54 53 -130v-309z" />
    <glyph glyph-name="x" unicode="x" horiz-adv-x="987" 
d="M883 -20h-15q-57 0 -114 20q-70 31 -103 57q-65 40 -170 162l-245 -246l-154 156l262 260q-8 9 -26 29t-36 44q-20 24 -53 46q-27 27 -67 44t-78 11v223q131 29 260 -75q39 -33 82 -80q25 -31 70 -88l256 256l153 -156l-274 -274q140 -175 270 -164v-223q-6 -2 -18 -2z
" />
    <glyph glyph-name="y" unicode="y" horiz-adv-x="993" 
d="M850 -147q0 -119 -76 -222q-84 -106 -203 -106l-88 194q49 0 95 39q39 45 38 95v221q-72 -96 -200 -94q-59 0 -109 24q-53 20 -86 62q-76 80 -78 200v512h234v-487q0 -45 24 -82q27 -33 76 -33t80 28t45 68q14 14 14 47v459h234v-925z" />
    <glyph glyph-name="z" unicode="z" horiz-adv-x="899" 
d="M403 104q-99 0 -165 -81l-154 153l397 383h-399v219h663l72 -178l-336 -334h8q143 0 236 -106q43 -45 67 -112q47 -131 -3 -271t-168 -215q-59 -33 -129 -37l-89 199q35 0 74 14q79 45 101 102q16 31 16 74t-16 74q-21 58 -101 102q-39 14 -74 14z" />
    <glyph glyph-name="braceleft" unicode="{" horiz-adv-x="616" 
d="M41 582q206 0 209 151v350q0 111 47 222t139 180l139 -117q-83 -72 -100 -110q-16 -38 -29 -82q-6 -41 -6 -93v-350q0 -37 -10 -65q-4 -25 -24 -70q-43 -72 -99 -90q56 -15 99 -92q34 -76 34 -133v-351q0 -51 6 -92q12 -45 25 -69q19 -50 104 -123l-139 -117
q-92 71 -139 181t-47 220v351q0 85 -68 118q-57 33 -141 33v148z" />
    <glyph glyph-name="bar" unicode="|" horiz-adv-x="475" 
d="M332 -440h-189v1894h189v-1894z" />
    <glyph glyph-name="braceright" unicode="}" horiz-adv-x="616" 
d="M575 434q-85 0 -146 -34q-62 -34 -62 -117v-351q1 -111 -47 -220t-138 -181l-141 117q12 12 65 63q16 18 41 60q29 82 29 161v351q0 16 8 65q16 45 30 72q14 28 40 54q27 26 55 34q-77 23 -125 160q-8 45 -8 65v350q0 87 -29 162q-25 41 -41 60q-51 51 -65 63l141 117
q90 -71 137 -181t48 -221v-350q0 -87 67 -119q55 -32 141 -32v-148z" />
    <glyph glyph-name="asciitilde" unicode="~" horiz-adv-x="935" 
d="M659 313q-47 -1 -87 13t-131 51t-158 39q-113 0 -222 -107v246q111 111 226 111q69 0 192 -56t191 -55q102 0 204 100v-237q-105 -105 -215 -105z" />
  </font>
</defs>
</svg>
