<?xml version="1.0" standalone="no"?>
<!DOCTYPE svg PUBLIC "-//W3C//DTD SVG 1.1//EN" "http://www.w3.org/Graphics/SVG/1.1/DTD/svg11.dtd" >
<svg xmlns="http://www.w3.org/2000/svg">
<metadata>
Created by FontPrep 20130207 at Fri Dec  5 22:55:54 2014
 By Zendy Wongso
Copyright (c) 1985, 1987, 1997 Adobe Systems Incorporated.  All Rights Reserved.ITC Lubalin Graph is a registered trademark of International Typeface Corporation.
</metadata>
<defs>
<font id="468110fea1d2f00f9c4970f61b6fc61c" horiz-adv-x='1024' >
  <font-face 
    font-family="ITCLubalinGraph-Book"
    font-weight="400"
    font-stretch="normal"
    units-per-em="2048"
    panose-1="2 0 5 3 0 0 0 0 0 0"
    ascent="1638"
    descent="-410"
    x-height="1075"
    cap-height="1462"
    bbox="0 -512 2095 1690"
    underline-thickness="102"
    underline-position="-102"
    unicode-range="U+0020-007E"
  />
<missing-glyph horiz-adv-x="1024" 
 />
    <glyph glyph-name=".notdef" horiz-adv-x="1024" 
 />
    <glyph glyph-name=".null" horiz-adv-x="0" 
 />
    <glyph glyph-name="nonmarkingreturn" horiz-adv-x="681" 
 />
    <glyph glyph-name="space" unicode=" " horiz-adv-x="614" 
 />
    <glyph glyph-name="exclam" unicode="!" horiz-adv-x="286" 
d="M215 1462v-1087h-141v1087h141zM215 223v-223h-141v223h141z" />
    <glyph glyph-name="quotedbl" unicode="&#x22;" horiz-adv-x="573" 
d="M193 997h-97l-22 465h143zM465 997h-98l-23 465h143z" />
    <glyph glyph-name="numbersign" unicode="#" 
d="M745 866h-247l-31 -239h248zM59 532v95h310l30 239h-284v97h301l69 499h97l-68 -499h248l72 499h94l-68 -499h268v-97h-286l-29 -239h264v-95h-282l-74 -532h-96l73 532h-249l-74 -532h-96l71 532h-291z" />
    <glyph glyph-name="dollar" unicode="$" 
d="M901 386q1 114 -71 188t-191 104v-580q113 14 187 94t75 194zM514 846v512q-94 -2 -162 -78t-68 -178t64 -166t166 -90zM965 1114h-117q0 82 -62 154q-66 72 -147 90v-539q186 -29 299 -141t113 -289q0 -170 -124 -294q-58 -58 -128 -87q-72 -35 -160 -41v-190h-125v190
q-84 27 -139 62t-103 104v-133h-116v393h116q4 -106 72 -180q68 -80 170 -115v607l-65 20q-143 41 -224 127q-45 51 -65 115q-25 65 -25 137q0 148 111 266q53 51 125 84t143 35v201h125v-201q68 -14 127 -51q55 -39 82 -97v119h117v-346z" />
    <glyph glyph-name="percent" unicode="%" horiz-adv-x="1638" 
d="M563 0h-119l650 1462h116zM413 934q91 0 155 64t64 154t-63 159q-71 63 -157 63t-153 -61t-67 -155t64 -159q66 -65 157 -65zM412 815q-72 0 -136 29t-104 74q-43 41 -74 110q-52 138 2 262q54 122 182 176q62 26 132 27q135 0 237 -100q99 -99 99 -237t-99 -243
q-102 -98 -239 -98zM1239 94q91 0 155 64t64 155t-63 155t-153 64t-157 -61q-65 -61 -65 -153t64 -158t155 -66zM1239 -27q-148 0 -242 103q-49 51 -71 112q-27 59 -27 130q0 135 100 237q45 43 109 70q194 82 371 -72q98 -111 98 -240q0 -70 -27 -132q-54 -124 -180 -181
q-59 -27 -131 -27z" />
    <glyph glyph-name="ampersand" unicode="&#x26;" horiz-adv-x="1474" 
d="M219 403q0 -119 86 -215q86 -90 213 -90q72 0 125 25q47 18 94 61q45 47 66 90q24 39 63 121l-358 344q-131 -59 -210 -138t-79 -198zM568 1378q-88 0 -151 -58t-63 -138t29 -124q29 -42 98 -108l54 -49q104 51 174 111q67 61 67 149t-59 154q-61 63 -149 63zM219 1154
q0 158 100 251q45 45 111 71q131 52 259 1q127 -51 185 -174q27 -59 27 -129q0 -127 -78 -207q-72 -82 -205 -148l326 -311l193 416h264v-127h-178l-183 -385l351 -340l-95 -95l-333 326q-79 -164 -185 -248t-274 -84t-303 123q-57 59 -95 137q-33 82 -32 166q0 145 94 252
q102 109 250 182l-29 27q-88 86 -129 148t-41 148z" />
    <glyph glyph-name="quotesingle" unicode="'" horiz-adv-x="286" 
d="M193 997h-97l-22 465h143z" />
    <glyph glyph-name="parenleft" unicode="(" horiz-adv-x="696" 
d="M74 598q0 307 174 551q68 100 165 186t201 127v-162q-182 -115 -285 -300t-103 -400t104 -405t284 -301v-166q-254 122 -393 354q-67 109 -107 245t-40 271z" />
    <glyph glyph-name="parenright" unicode=")" horiz-adv-x="696" 
d="M614 598q0 -135 -36 -268q-131 -423 -504 -602v166q182 110 285 302t103 404t-100 398q-102 185 -288 302v162q102 -41 198 -126q342 -303 342 -738z" />
    <glyph glyph-name="asterisk" unicode="*" horiz-adv-x="696" 
d="M635 1153h-209l106 -170l-73 -45l-105 178l-98 -184l-74 41l103 180l-211 -4v86h207l-113 176l74 47l110 -186l107 190l76 -43l-109 -184l209 4v-86z" />
    <glyph glyph-name="plus" unicode="+" horiz-adv-x="1351" 
d="M145 795h457v456h127v-456h457v-125h-457v-457h-127v457h-457v125z" />
    <glyph glyph-name="comma" unicode="," horiz-adv-x="614" 
d="M295 -199h-129l151 377h129z" />
    <glyph glyph-name="hyphen" unicode="-" horiz-adv-x="614" 
d="M561 467h-508v135h508v-135z" />
    <glyph glyph-name="period" unicode="." horiz-adv-x="614" 
d="M379 223v-223h-141v223h141z" />
    <glyph glyph-name="slash" unicode="/" 
d="M182 -399h-108l911 1861h111z" />
    <glyph glyph-name="zero" unicode="0" 
d="M223 963v-455q0 -72 15 -143q47 -156 186 -222q76 -39 162 -39t170 39q155 85 182 226q14 55 14 139v455q0 88 -15 147t-60 120q-45 60 -122 98t-163 38t-170 -39q-141 -74 -184 -225q-15 -57 -15 -139zM1098 965v-457q0 -111 -28 -200t-102 -169t-171 -124
q-99 -44 -205 -44q-211 0 -365 150q-78 76 -116 174q-33 98 -33 213v457q0 111 28 199t103 167q70 80 172 125q101 45 205 45q206 0 362 -149q78 -76 117 -172q33 -102 33 -215z" />
    <glyph glyph-name="one" unicode="1" 
d="M705 1462v-1335h192v-127h-528v127h192v1219h-282v116h426z" />
    <glyph glyph-name="two" unicode="2" 
d="M922 354h131v-354h-932v127l618 602q84 80 130 151t46 160q0 137 -92 230q-96 90 -233 90t-227 -98t-91 -250h-141q0 211 135 352q145 137 332 137q88 0 176 -34t150 -93q135 -135 135 -338q-1 -125 -61 -216t-173 -197l-516 -496h613v227z" />
    <glyph glyph-name="three" unicode="3" 
d="M975 1128q0 -90 -52 -176t-145 -121q129 -39 209 -151q78 -116 78 -230q0 -205 -139 -346q-133 -133 -328 -133t-340 123q-137 127 -149 324h149q8 -127 101 -221q93 -95 226 -95t232 99t97 239q-1 141 -107 236q-47 44 -114 68t-130 24h-74v115h70q121 1 200 63t79 176
t-71 186q-71 70 -171 70t-172 -67q-70 -68 -74 -164h-137q8 160 119 254q53 49 121 75q144 55 288 -1q234 -96 234 -347z" />
    <glyph glyph-name="four" unicode="4" 
d="M768 477v811l-557 -811h557zM1124 477v-119h-213v-231h193v-127h-526v127h190v231h-719v119l686 985h176v-985h213z" />
    <glyph glyph-name="five" unicode="5" 
d="M584 844q-196 0 -305 -154l-129 31l135 741h723v-127h-607l-92 -471q133 109 321 109t333 -146q143 -143 143 -349q0 -104 -39 -197q-79 -187 -285 -273q-92 -37 -200 -37q-197 0 -341 118t-173 308h151q25 -127 126 -210t235 -83q68 0 143 27q145 63 205 196
q30 69 30 147t-28 140q-23 66 -77 120q-110 110 -269 110z" />
    <glyph glyph-name="six" unicode="6" 
d="M588 113q156 0 264 108q111 107 111 262q0 72 -29 145q-58 145 -201 208q-139 58 -291 0q-137 -62 -200 -201q-29 -74 -29 -146q0 -73 29 -145t82 -121q52 -53 122 -81t142 -29zM617 985q106 0 194 -39q179 -79 254 -262q37 -92 37 -193t-40 -201t-111 -170
q-149 -149 -364 -149q-215 1 -365 153t-150 376q0 90 28 163t90 168l431 631h161l-374 -547q103 70 209 70z" />
    <glyph glyph-name="seven" unicode="7" 
d="M143 1462h889v-137l-600 -1325h-160l613 1335h-600v-264h-142v391z" />
    <glyph glyph-name="eight" unicode="8" 
d="M264 420q0 -64 26 -124t68 -101q95 -95 229 -95t224 95q45 45 69 105q51 127 -1 247q-52 121 -174 170q-113 51 -246 0q-121 -55 -170 -172q-25 -61 -25 -125zM332 1122q0 -104 72 -179t177 -75t179 76t74 177t-72 177q-74 76 -178 76t-178 -74t-74 -178zM199 1111
q0 261 243 364q151 51 295 0q139 -62 201 -197q29 -68 29 -159t-52 -169q-51 -84 -147 -131q123 -39 205 -151t82 -224q0 -203 -137 -342q-143 -131 -327 -131t-333 125q-137 127 -137 318q0 134 79 244t206 153q-98 45 -152 126t-55 174z" />
    <glyph glyph-name="nine" unicode="9" 
d="M858 715q47 47 80 123q27 76 27 148q0 141 -109 263q-120 109 -262 109q-72 0 -144 -28t-126 -82q-53 -54 -82 -118q-29 -74 -29 -146t30 -148q30 -74 81 -123q105 -113 262 -113t272 115zM592 1501q102 0 198 -40q96 -39 168 -115q150 -158 150 -371q0 -94 -29 -173
t-90 -171l-422 -631h-178l377 541q-182 -118 -397 -29q-90 43 -158 111q-143 155 -141 352q0 208 150 368q72 77 171 117t201 41z" />
    <glyph glyph-name="colon" unicode=":" horiz-adv-x="614" 
d="M379 973v-223h-141v223h141zM379 223v-223h-141v223h141z" />
    <glyph glyph-name="semicolon" unicode=";" horiz-adv-x="614" 
d="M373 973v-223h-131v223h131zM223 -199h-129l152 377h129z" />
    <glyph glyph-name="less" unicode="&#x3c;" horiz-adv-x="1351" 
d="M1219 299v-129l-1106 504v119l1106 507v-129l-963 -440z" />
    <glyph glyph-name="equal" unicode="=" horiz-adv-x="1351" 
d="M145 643h1041v-125h-1041v125zM145 948h1041v-125h-1041v125z" />
    <glyph glyph-name="greater" unicode="&#x3e;" horiz-adv-x="1351" 
d="M113 299l962 432l-962 440v129l1106 -507v-119l-1106 -504v129z" />
    <glyph glyph-name="question" unicode="?" horiz-adv-x="1064" 
d="M469 369q0 131 52 224t159 191l4 4q80 72 118 128t38 130q0 140 -92 234q-42 43 -102 67q-128 52 -240 -4q-59 -25 -99 -69q-90 -90 -90 -221h-143q0 190 131 325q63 64 148 100q170 73 352 1q81 -33 147 -97t98 -145q37 -79 37 -187t-45 -173q-41 -66 -154 -172
q-86 -86 -130 -161t-46 -175h-143zM612 223v-223h-143v223h143z" />
    <glyph glyph-name="at" unicode="@" horiz-adv-x="1843" 
d="M832 408q106 0 188 69q66 59 101 168q61 189 61 263q0 75 -60 122q-55 49 -137 49q-81 0 -153 -39t-119 -100q-49 -55 -82 -137q-27 -84 -27 -150q0 -109 64 -174q58 -71 164 -71zM993 -29q-169 -1 -329 55q-335 116 -451 398q-66 143 -66 303q0 317 246 551
q115 109 264 164q145 59 301 59q297 0 508 -174q98 -82 156 -199q58 -118 57 -238q0 -120 -24 -210q-29 -90 -86 -166q-68 -82 -157 -134t-185 -52q-121 0 -127 123q-115 -133 -287 -134q-133 0 -225 105q-39 47 -64 110q-20 68 -20 144t37 166t102 166q149 157 340 157
q84 0 152 -43t92 -118l33 100h96l-156 -531q-20 -61 -20 -98q0 -70 75 -69q61 0 125 38t103 88q57 63 90 152q27 94 26 184q0 229 -178 392q-185 164 -465 164t-499 -195q-221 -203 -221 -498q0 -149 58 -279t157 -214q206 -189 531 -189q161 1 320 69t259 189l38 -59
q-106 -133 -271 -205t-335 -72z" />
    <glyph glyph-name="A" unicode="A" horiz-adv-x="1679" 
d="M1137 592l-293 704l-299 -704h592zM1671 0h-536v135h190l-145 336h-678l-150 -336h185v-135h-523v135h183l530 1192h-195v135h383l574 -1327h182v-135z" />
    <glyph glyph-name="B" unicode="B" 
d="M383 135h252q102 0 159 9q135 21 181 135q53 140 -6 265t-199 152q-74 8 -152 9h-235v-570zM383 831h225q82 1 136 11t100 49q86 71 86 197t-96 198q-35 27 -79 34t-141 7h-231v-496zM49 1462h602q94 0 160 -15t123 -56q143 -106 143 -289q0 -102 -55 -188t-148 -132
q129 -47 201 -149t72 -238q0 -174 -127 -297q-66 -58 -142 -78t-190 -20h-639v135h187v1192h-187v135z" />
    <glyph glyph-name="C" unicode="C" horiz-adv-x="1515" 
d="M809 1501q313 0 506 -211v172h135v-356h-135q-74 115 -215 184q-144 64 -282 64t-247 -47q-106 -41 -195 -128t-135 -201t-46 -238q0 -247 176 -437q181 -184 451 -184q142 1 275 71q134 70 222 193h164q-92 -186 -275 -301q-184 -111 -397 -111q-147 -1 -289 57
t-251 164q-110 106 -167 250q-57 143 -57 298q0 313 229 550q96 98 236 154t297 57z" />
    <glyph glyph-name="D" unicode="D" horiz-adv-x="1474" 
d="M383 135h287q137 0 252 33q108 37 192 126t127 202q47 112 47 234t-49 246t-135 204q-90 88 -190 118t-238 29h-293v-1192zM236 135v1192h-189v135h651q164 0 285 -45t236 -153q104 -102 160 -242q57 -140 57 -290q0 -148 -56 -283q-51 -133 -155 -244
q-103 -111 -233 -158t-294 -47h-651v135h189z" />
    <glyph glyph-name="E" unicode="E" horiz-adv-x="1146" 
d="M932 377h147v-377h-1030v135h187v1192h-187v135h1030v-377h-147v242h-549v-528h565v-121h-565v-543h549v242z" />
    <glyph glyph-name="F" unicode="F" horiz-adv-x="1146" 
d="M383 674v-539h188v-135h-522v135h187v1192h-187v135h1032v-381h-147v246h-551v-532h557v-121h-557z" />
    <glyph glyph-name="G" unicode="G" horiz-adv-x="1597" 
d="M1479 1096h-136q-217 260 -528 260q-123 0 -239 -47q-233 -94 -334 -328q-47 -117 -47 -240t46 -237t131 -203q84 -88 198 -135t230 -47q217 0 382 119q163 132 217 321h-733v127h895v-686h-136v340q-88 -174 -256 -270q-166 -98 -364 -99q-99 0 -191 27
q-207 60 -335 195q-125 114 -197 325q-35 111 -35 249t59 269q53 137 165 243q235 222 548 222q147 0 287 -60t237 -169v190h136v-366z" />
    <glyph glyph-name="H" unicode="H" horiz-adv-x="1474" 
d="M1110 797v530h-186v135h520v-135h-187v-1192h187v-135h-520v135h186v547h-727v-547h188v-135h-522v135h187v1192h-187v135h522v-135h-188v-530h727z" />
    <glyph glyph-name="I" unicode="I" horiz-adv-x="614" 
d="M383 1327v-1192h186v-135h-520v135h187v1192h-187v135h520v-135h-186z" />
    <glyph glyph-name="J" unicode="J" horiz-adv-x="1064" 
d="M678 446v881h-189v135h523v-135h-187v-911q0 -108 -14 -170t-68 -129q-49 -66 -134 -106t-172 -40q-165 0 -281 103q-107 107 -115 262h154q10 -94 75 -162q66 -66 170 -66t183 97q39 49 45 98q10 43 10 143z" />
    <glyph glyph-name="K" unicode="K" horiz-adv-x="1433" 
d="M1384 135v-135h-536v135h170l-635 602v-602h186v-135h-520v135h187v1192h-187v135h520v-135h-186v-543l602 543h-164v135h529v-135h-176l-629 -563l667 -629h172z" />
    <glyph glyph-name="L" unicode="L" horiz-adv-x="1064" 
d="M862 377h148v-377h-961v135h187v1192h-187v135h520v-135h-186v-1192h479v242z" />
    <glyph glyph-name="M" unicode="M" horiz-adv-x="2007" 
d="M373 135h192v-135h-526v135h186v1192h-186v135h410l530 -1241l582 1241h405v-135h-188v-1192h188v-135h-524v135h188v1139l-598 -1274h-114l-545 1270v-1135z" />
    <glyph glyph-name="N" unicode="N" horiz-adv-x="1638" 
d="M1409 1327v-1327h-152l-874 1223v-1088h188v-135h-522v135h187v1192h-187v135h336l877 -1229v1094h-187v135h520v-135h-186z" />
    <glyph glyph-name="O" unicode="O" horiz-adv-x="1638" 
d="M817 117q259 0 441 185q180 184 180 438q0 124 -49 235q-45 111 -133 197q-184 182 -436 182q-253 0 -443 -178q-86 -86 -134 -201t-48 -239q0 -255 182 -437q90 -88 201 -131q111 -49 239 -49v-2zM820 -29q-157 -1 -299 59t-247 165q-109 102 -168 244t-59 297t58 295
t168 249t247 162q137 59 297 59q320 0 543 -223q109 -104 167 -244t58 -290q0 -151 -57 -298q-62 -144 -166 -250t-244 -163q-141 -62 -298 -62z" />
    <glyph glyph-name="P" unicode="P" 
d="M383 713h264q84 0 139 13t109 54q113 94 113 240q0 66 -31 130q-60 123 -195 163q-55 14 -137 14h-262v-614zM383 578v-443h186v-135h-520v135h187v1192h-187v135h598q92 0 184 -20q202 -61 280 -223q44 -92 44 -195q0 -195 -141 -330q-72 -72 -154 -92q-82 -25 -198 -24
h-279z" />
    <glyph glyph-name="Q" unicode="Q" horiz-adv-x="1761" 
d="M545 508q-145 0 -281 -53q78 -156 228 -246t333 -90t322 92l-41 35q-60 60 -143 119q-55 43 -123 71q-150 72 -295 72zM1438 728q0 126 -47 242t-135 202q-184 182 -441 182q-121 0 -235 -46t-199 -132q-86 -86 -135 -197q-47 -117 -47 -208t30 -196q165 53 341 53
t334 -84q158 -85 339 -251q91 80 143 195q52 114 52 240zM1735 -41q-258 0 -471 150q-205 -137 -449 -138q-158 -1 -298 59q-141 60 -245 166q-219 224 -221 543q0 162 60 295q55 138 161 244t246 164t297 59q158 0 295 -59q135 -53 250 -164q225 -229 225 -541
q0 -147 -57 -295q-61 -145 -170 -245q131 -86 260 -103v164h117v-299z" />
    <glyph glyph-name="R" unicode="R" horiz-adv-x="1310" 
d="M1278 135v-135h-285l-452 631h55q113 0 181 9t137 50t114 119t45 170q0 164 -110 264q-63 55 -121 69t-170 15h-287v-1192h174v-135h-510v135h189v1192h-189v135h633q113 0 209 -20q90 -25 164 -88q166 -141 166 -369q0 -86 -33 -174q-79 -179 -238 -242
q-82 -35 -172 -34l305 -400h195z" />
    <glyph glyph-name="S" unicode="S" horiz-adv-x="1024" 
d="M889 1112h-123q-16 123 -94 192q-78 68 -195 68t-198 -72q-84 -70 -84 -184q1 -61 27 -115t69 -88q47 -33 98 -49t121 -30l25 -7q104 -23 170 -49q161 -62 225 -207q35 -79 35 -161q1 -82 -17 -144t-67 -123q-135 -172 -365 -172q-104 0 -188 45q-86 41 -144 127v-143
h-123v393h123q16 -133 104 -211t220 -78q131 0 220 83t89 217t-100 202q-58 46 -202 83q-145 36 -206 60q-262 104 -262 363q0 124 76 231q55 76 151 117t194 41t181 -41q84 -41 117 -117v119h123v-350z" />
    <glyph glyph-name="T" unicode="T" horiz-adv-x="1105" 
d="M637 1327v-1192h186v-135h-520v135h186v1192h-317v-256h-127v391h1036v-391h-127v256h-317z" />
    <glyph glyph-name="U" unicode="U" horiz-adv-x="1433" 
d="M1192 1327v-842q0 -113 -26 -197t-91 -163q-72 -78 -162 -113q-88 -41 -194 -41q-223 0 -361 150q-74 82 -98 169t-22 214v823h-187v135h510v-135h-176v-807q0 -90 10 -151t52 -121t112 -95q70 -34 156 -34q162 0 254 112q45 57 60 123t15 164v809h-176v135h510v-135
h-186z" />
    <glyph glyph-name="V" unicode="V" horiz-adv-x="1597" 
d="M14 1327v135h523v-135h-183l451 -1122l459 1122h-187v135h514v-135h-176l-536 -1327h-156l-524 1327h-185z" />
    <glyph glyph-name="W" unicode="W" horiz-adv-x="2129" 
d="M14 1327v135h523v-135h-191l313 -1102l342 1237h117l342 -1235l307 1100h-196v135h524v-135h-184l-369 -1327h-158l-323 1174l-330 -1174h-153l-385 1327h-179z" />
    <glyph glyph-name="X" unicode="X" horiz-adv-x="1515" 
d="M1468 135v-135h-524v135h186l-368 508l-369 -508h178v-135h-526v135h182l447 617l-420 575h-176v135h524v-135h-178l338 -469l334 469h-187v135h527v-135h-170l-418 -575l450 -617h170z" />
    <glyph glyph-name="Y" unicode="Y" horiz-adv-x="1392" 
d="M780 135h187v-135h-523v135h189v357l-445 835h-174v135h510v-135h-180l363 -696l344 696h-189v135h512v-135h-174l-420 -835v-357z" />
    <glyph glyph-name="Z" unicode="Z" horiz-adv-x="1064" 
d="M1036 379v-379h-989v121l760 1206h-608v-244h-127v379h915v-116l-762 -1211h684v244h127z" />
    <glyph glyph-name="bracketleft" unicode="[" horiz-adv-x="614" 
d="M532 -127v-137h-460v1726h460v-131h-309v-1458h309z" />
    <glyph glyph-name="backslash" unicode="\" 
d="M780 0l-614 1462h141l611 -1462h-138z" />
    <glyph glyph-name="bracketright" unicode="]" horiz-adv-x="614" 
d="M74 -127h307v1458h-307v131h458v-1726h-458v137z" />
    <glyph glyph-name="asciicircum" unicode="^" horiz-adv-x="1351" 
d="M227 356h-125l504 1106h115l508 -1106h-127l-440 959z" />
    <glyph glyph-name="underscore" unicode="_" horiz-adv-x="1024" 
d="M0 -154h1024v-102h-1024v102z" />
    <glyph glyph-name="grave" unicode="`" horiz-adv-x="860" 
d="M702 1321l-51 -102l-506 274l58 119z" />
    <glyph glyph-name="a" unicode="a" horiz-adv-x="1351" 
d="M164 527q0 -171 125 -298q55 -55 137 -94q86 -33 172 -33q176 0 302 126t126 303t-125 305q-134 125 -305 125t-305 -125q-55 -55 -94 -140q-33 -82 -33 -169zM1024 0v223q-72 -123 -186 -187t-255 -65q-143 0 -271 69q-193 104 -261 325q-23 79 -23 173t22 157t63 132
q56 121 198 197q125 70 273 70q291 0 440 -254v235h313v-127h-178v-821h178v-127h-313z" />
    <glyph glyph-name="b" unicode="b" horiz-adv-x="1351" 
d="M772 106q86 0 168 33q78 37 137 94q123 127 123 299t-125 304q-133 124 -301 122q-92 0 -173 -32t-136 -88t-90 -136t-35 -168t33 -169q80 -164 232 -226q81 -33 167 -33zM346 1462v-626q66 122 178 190t238 68q245 0 409 -164t164 -400q0 -158 -90 -307q-25 -43 -73 -91
t-107 -82q-133 -77 -274 -78q-140 0 -258 64t-187 187v-223h-315v127h180v1208h-180v127h315z" />
    <glyph glyph-name="c" unicode="c" horiz-adv-x="1146" 
d="M1083 1075v-323h-127q-59 96 -157 151q-97 55 -199 55q-184 0 -313 -124q-123 -132 -123 -306q0 -84 33 -166q77 -162 233 -223q74 -33 180 -33t209 65q102 65 148 165h151q-58 -164 -206 -264t-326 -101q-117 0 -213 45q-98 41 -180 119q-164 168 -164 391q0 113 42 215
q88 213 296 308q98 45 213 45q223 0 376 -172v153h127z" />
    <glyph glyph-name="d" unicode="d" horiz-adv-x="1351" 
d="M594 98q86 0 172 33q165 78 229 236q33 78 33 166t-33 169q-78 164 -233 230q-74 33 -165 33t-167 -35q-154 -61 -233 -234q-33 -86 -33 -169t33 -165q41 -84 96 -137q127 -127 301 -127zM1024 0v227q-72 -121 -186 -189t-249 -67q-134 0 -263 71t-203 185
q-41 68 -70 150q-57 188 19 373q47 106 121 178q74 78 176 121q96 45 222 45t249 -70q123 -76 184 -197v508h-180v127h315v-1335h180v-127h-315z" />
    <glyph glyph-name="e" unicode="e" 
d="M584 971q-78 0 -154 -30t-127 -81q-55 -44 -93 -114t-48 -148h856q-12 82 -51 152q-71 135 -230 193q-75 28 -153 28zM588 -29q-118 0 -222 45t-173 119q-72 66 -123 176q-43 104 -43 216t42 216q85 210 296 306q98 45 215 45q239 0 402 -163t163 -403v-41h-983
q2 -79 40 -153q124 -242 402 -242q100 0 196 54q97 54 156 155h144q-68 -150 -207 -240t-305 -90z" />
    <glyph glyph-name="f" unicode="f" horiz-adv-x="614" 
d="M211 1083v21q2 111 19 177q16 65 76 121t124 73q59 23 143 26v-121q-90 -6 -144 -48q-53 -42 -65 -86t-16 -130v-33h184v-131h-184v-825h184v-127h-501v127h182v825h-182v131h180z" />
    <glyph glyph-name="g" unicode="g" horiz-adv-x="1351" 
d="M598 98q82 0 168 33q165 80 229 238q33 74 33 166q0 184 -127 305q-61 63 -139 94q-72 35 -166 35t-166 -35q-78 -32 -142 -96t-91 -140q-35 -76 -35 -169t35 -164q60 -152 233 -234q86 -33 168 -33zM1018 121v115q-63 -123 -178 -194t-260 -71q-53 1 -129 19t-136 51
q-190 91 -266 336q-49 168 4 332q74 213 271 319q127 66 263 66t255 -66q117 -68 176 -182v229h315v-127h-180v-801q0 -139 -28 -234q-29 -95 -105 -180t-184 -131t-256 -46t-287 88q-140 85 -193 239h156q49 -98 145 -153q93 -58 191 -58q196 -1 315 131q67 70 89 144
t22 174z" />
    <glyph glyph-name="h" unicode="h" horiz-adv-x="1310" 
d="M346 1462v-588q55 100 150 162q96 57 206 58q193 0 322 -152q64 -76 82 -158t18 -211v-446h181v-127h-496v127h180v391q0 124 -9 184t-38 107q-41 74 -115 113q-72 41 -153 41q-150 0 -244 -107q-52 -62 -68 -126t-16 -175v-428h180v-127h-495v127h180v1208h-180v127h315
z" />
    <glyph glyph-name="i" unicode="i" horiz-adv-x="532" 
d="M350 1462v-211h-135v211h135zM350 1075v-948h180v-127h-499v127h184v821h-180v127h315z" />
    <glyph glyph-name="j" unicode="j" horiz-adv-x="491" 
d="M356 1462v-211h-135v211h135zM356 1075v-1055q0 -196 -70 -296t-257 -134v129q123 20 159 105q33 88 33 256v868h-180v127h315z" />
    <glyph glyph-name="k" unicode="k" 
d="M350 1462v-866l395 352h-161v127h506v-127h-177l-403 -366l453 -455h194v-127h-528v127h151l-430 434v-434h164v-127h-483v127h184v1208h-184v127h319z" />
    <glyph glyph-name="l" unicode="l" horiz-adv-x="573" 
d="M358 1462v-1335h179v-127h-506v127h192v1208h-180v127h315z" />
    <glyph glyph-name="m" unicode="m" horiz-adv-x="2007" 
d="M348 1075v-186q45 94 131 151q88 54 200 54t198 -54q86 -49 139 -151l22 -41q44 110 146 178t236 68q260 0 364 -246q29 -76 31 -240v-481h180v-127h-496v127h180v451q0 98 -16 165q-22 133 -154 195q-57 25 -123 25t-128 -27t-105 -78t-57 -104t-15 -144v-483h181v-127
h-496v127h180v455q0 90 -19 164q-39 151 -145 194q-61 23 -135 23q-136 0 -221 -101q-49 -59 -61 -117q-16 -55 -17 -149v-469h180v-127h-495v127h180v821h-180v127h315z" />
    <glyph glyph-name="n" unicode="n" horiz-adv-x="1351" 
d="M346 1075v-188q50 98 150 152q202 108 422 1q161 -80 200 -274q18 -70 19 -160v-479h180v-127h-496v127h180v430q0 102 -10 156q-6 59 -41 116q-38 70 -116 101t-157 31q-158 0 -259 -113q-48 -58 -60 -118t-12 -157v-446h180v-127h-495v127h180v821h-180v127h315z" />
    <glyph glyph-name="o" unicode="o" 
d="M590 104q178 0 303 125q125 134 125 303q0 90 -35 170t-90 132q-57 61 -135 92q-72 35 -165 35q-172 0 -306 -125q-125 -125 -125 -301q0 -88 35 -170t90 -134q57 -61 135 -92q76 -35 168 -35zM593 -29q-236 0 -400 164q-76 76 -121 179t-45 217t43 219q96 212 307 301
q102 43 217 43q116 0 220 -45t173 -119q72 -66 123 -176q43 -104 43 -217t-43 -218q-88 -210 -298 -303q-101 -45 -219 -45z" />
    <glyph glyph-name="p" unicode="p" horiz-adv-x="1351" 
d="M774 98q82 0 164 33q171 79 233 234q35 75 35 169q0 191 -125 314q-120 120 -298 118q-89 -1 -169 -36q-82 -31 -142 -87q-128 -119 -128 -303t125 -315q55 -55 137 -94q86 -33 168 -33zM346 1075v-239q70 126 184 192t258 66t267 -66q177 -85 264 -334q23 -74 23 -176
t-43 -204q-41 -103 -119 -181q-161 -162 -389 -162q-141 0 -261 69t-184 187v-499h180v-127h-495v127h180v1220h-180v127h315z" />
    <glyph glyph-name="q" unicode="q" horiz-adv-x="1351" 
d="M598 98q82 0 164 33q84 39 139 95t94 139q33 85 33 165t-33 162q-83 175 -235 238q-80 37 -170 37h-15q-6 2 -16 2q-172 0 -283 -123q-112 -124 -112 -308q0 -88 33 -173q39 -82 94 -140q57 -55 139 -94q86 -33 168 -33zM1022 -272v497q-59 -117 -182 -185t-248 -69
q-238 0 -404 164q-74 74 -116 179q-42 104 -43 200q0 187 77 320q58 108 188 184t280 76t265 -68q114 -68 183 -192v241h315v-127h-180v-1220h180v-127h-495v127h180z" />
    <glyph glyph-name="r" unicode="r" horiz-adv-x="737" 
d="M346 559v-432h180v-127h-495v127h180v821h-180v127h315v-219q35 106 129 162t215 57v-127q-344 -28 -344 -389z" />
    <glyph glyph-name="s" unicode="s" horiz-adv-x="860" 
d="M399 1094q167 0 244 -119v100h111v-272h-111q-2 82 -69 131q-66 49 -152 49t-148 -49t-63 -133q0 -51 20 -80q20 -35 56 -55q56 -37 138 -52q187 -33 267 -84q66 -37 100 -100q57 -107 21 -219q-8 -27 -41 -91t-120 -107q-87 -42 -187 -42q-208 0 -299 158v-129h-111v307
h111q8 -94 88 -164q80 -63 180 -63t170 57t70 153t-76 138q-31 20 -71 32l-115 27q-84 16 -129 33q-43 10 -97 43q-63 43 -92 99q-35 56 -35 150q1 94 51 157t129 94t160 31z" />
    <glyph glyph-name="t" unicode="t" horiz-adv-x="655" 
d="M369 948v-821h254v-127h-390v948h-206v127h206v387h136v-387h237v-127h-237z" />
    <glyph glyph-name="u" unicode="u" horiz-adv-x="1310" 
d="M633 98h26q152 12 242 117q49 55 63 115t15 162v456h-180v127h315v-948h182v-127h-317v180q-53 -100 -148 -153q-93 -55 -207 -55t-215 60q-101 62 -155 150t-55 262v504h-181v127h316v-579q0 -98 12 -160t55 -123q90 -115 232 -115z" />
    <glyph glyph-name="v" unicode="v" horiz-adv-x="1310" 
d="M14 948v127h494v-127h-164l313 -786l322 786h-172v127h489v-127h-172l-393 -948h-151l-385 948h-181z" />
    <glyph glyph-name="w" unicode="w" horiz-adv-x="1843" 
d="M14 948v127h488v-127h-170l270 -772l277 795h112l252 -785l275 762h-175v127h490v-127h-180l-340 -948h-142l-239 743l-273 -743h-139l-325 948h-181z" />
    <glyph glyph-name="x" unicode="x" horiz-adv-x="1228" 
d="M1180 127v-127h-490v127h144l-230 315l-229 -315h143v-127h-487v127h176l305 412l-307 409h-168v127h481v-127h-147l233 -311l230 311h-156v127h483v-127h-166l-301 -409l307 -412h179z" />
    <glyph glyph-name="y" unicode="y" horiz-adv-x="1310" 
d="M772 -272v-127h-498v127h181l110 264l-379 956h-172v127h492v-127h-170l303 -786l322 786h-168v127h487v-127h-172l-512 -1220h176z" />
    <glyph glyph-name="z" unicode="z" horiz-adv-x="860" 
d="M723 326h121v-326h-817v115l616 833h-463v-207h-121v334h754v-125l-604 -823h514v199z" />
    <glyph glyph-name="braceleft" unicode="{" horiz-adv-x="614" 
d="M373 354v-377q0 -94 33 -149q37 -53 126 -80q-80 0 -128 9t-93 42t-60 85t-15 130v377q0 55 -8 87t-35 65q-47 53 -119 67q51 8 104 45q41 33 47 70q10 31 11 104v334q0 164 59 234q61 66 237 65q-88 -25 -124 -79t-35 -148v-352q0 -117 -35 -187q-35 -63 -143 -86
q102 -20 140 -82t38 -174z" />
    <glyph glyph-name="bar" unicode="|" horiz-adv-x="1351" 
d="M602 1536h127v-2048h-127v2048z" />
    <glyph glyph-name="braceright" unicode="}" horiz-adv-x="614" 
d="M233 883v352q0 92 -34 149q-35 53 -123 78q174 0 235 -65q59 -70 60 -234v-334q0 -63 9 -103t55 -74t97 -42q-72 -14 -108 -57t-45 -75q-8 -32 -8 -87v-377q1 -80 -13 -130t-60 -84t-92 -43t-130 -9q88 27 125 80q33 55 32 149v377q0 113 37 174q39 61 142 82
q-106 20 -142 88q-37 64 -37 185z" />
    <glyph glyph-name="asciitilde" unicode="~" horiz-adv-x="1351" 
d="M423 854q103 0 265 -72q2 0 6 -2t26 -9t89 -33q67 -27 125 -27q58 -1 102 37t92 112l97 -61q-78 -109 -141 -159t-142 -50t-203 43l-149 57q-103 43 -171 43q-69 0 -116 -41q-45 -43 -98 -123l-96 62q72 106 141 166q70 57 173 57z" />
  </font>
</defs>
</svg>
